<svg xmlns="http://www.w3.org/2000/svg" width="417" height="417" fill="none">
  <rect width="417" height="417" fill="#FECC03" rx="108.5"/>
  <path fill="#2E1F7A" fill-rule="evenodd" d="M381 208c0 94.993-77.007 172-172 172S37 302.993 37 208 114.007 36 209 36s172 77.007 172 172ZM240 101c0 17.121-13.879 31-31 31-17.121 0-31-13.879-31-31 0-17.1208 13.879-31 31-31 17.121 0 31 13.8792 31 31Zm62 190c17.121 0 31-13.879 31-31 0-17.121-13.879-31-31-31-17.121 0-31 13.879-31 31 0 17.121 13.879 31 31 31Zm31-136c0 17.121-13.879 31-31 31-17.121 0-31-13.879-31-31 0-17.121 13.879-31 31-31 17.121 0 31 13.879 31 31ZM115 291c17.121 0 31-13.879 31-31 0-17.121-13.879-31-31-31-17.1208 0-31 13.879-31 31 0 17.121 13.8792 31 31 31Zm124 23c0 17.121-13.879 31-31 31-17.121 0-31-13.879-31-31 0-17.121 13.879-31 31-31 17.121 0 31 13.879 31 31ZM115 189c17.121 0 31-13.879 31-31 0-17.121-13.879-31-31-31-17.1208 0-31 13.879-31 31 0 17.121 13.8792 31 31 31Z" clip-rule="evenodd"/>
  <path fill="#FFFEFA" d="M252 202.304c4 2.309 4 8.083 0 10.392l-60.75 35.074c-4 2.31-9-.577-9-5.196v-70.148c0-4.619 5-7.506 9-5.196L252 202.304Z"/>
</svg>